<?xml version="1.0" encoding="UTF-8" standalone="no"?>
<!-- Created with Inkscape (http://www.inkscape.org/) -->

<svg
   preserveAspectRatio="none"

   width="41.1982mm"
   height="20.62855mm"
   viewBox="0 0 41.1982 20.62855"
   version="1.1"
   id="svg21089"
   inkscape:version="1.1.2 (08b2f3d93c, 2022-04-05)"
   sodipodi:docname="destroyer.svg"
   xmlns:inkscape="http://www.inkscape.org/namespaces/inkscape"
   xmlns:sodipodi="http://sodipodi.sourceforge.net/DTD/sodipodi-0.dtd"
   xmlns="http://www.w3.org/2000/svg"
   xmlns:svg="http://www.w3.org/2000/svg">
  <sodipodi:namedview
     id="namedview21091"
     pagecolor="#ffffff"
     bordercolor="#666666"
     borderopacity="1.0"
     inkscape:pageshadow="2"
     inkscape:pageopacity="0.0"
     inkscape:pagecheckerboard="0"
     inkscape:document-units="mm"
     showgrid="false"
     showguides="true"
     inkscape:guide-bbox="true"
     inkscape:zoom="2.1946698"
     inkscape:cx="124.16447"
     inkscape:cy="39.18585"
     inkscape:window-width="1920"
     inkscape:window-height="1043"
     inkscape:window-x="0"
     inkscape:window-y="0"
     inkscape:window-maximized="1"
     inkscape:current-layer="layer1" />
  <defs
     id="defs21086" />
  <g
     inkscape:label="Layer 1"
     inkscape:groupmode="layer"
     id="layer1"
     transform="translate(0.02131085,0.25520132)">
    <path
       id="rect21115"
       style="fill:#808080;stroke-width:0.13272"
       d="m 16.322983,-0.07459166 8.208584,0.24508467 C 33.464258,0.43719743 41.176888,10.055812 41.00373,9.804037 l 0.173158,0.251775 c 0,0 -7.708649,10.232937 -16.645321,10.232937 h -8.315143 c -8.9366718,0 -16.21642314288944,0.0846 -16.21642314288944,0.0846 L -0.02131085,-0.23377875 c 0,0 7.41160225,-0.10751733 16.34429385,0.15918709 z"
       sodipodi:nodetypes="ssccssccs" />
    <path
       id="path29444"
       style="fill:#000000;stroke-width:0.264583"
       d="m 17.299982,7.7273928 a 2.7728164,2.4714234 0 0 0 -2.772957,2.4716842 2.7728164,2.4714234 0 0 0 2.772957,2.471167 2.7728164,2.4714234 0 0 0 2.370398,-1.191659 h 3.888135 V 10.90291 h -3.601847 a 2.7728164,2.4714234 0 0 0 0.116272,-0.703833 2.7728164,2.4714234 0 0 0 -0.0894,-0.622185 h 3.514514 V 9.0012168 h -3.772896 a 2.7728164,2.4714234 0 0 0 -2.425176,-1.273824 z" />
  </g>
</svg>
